<?xml version="1.0" encoding="UTF-8" standalone="no"?>
<svg width="24px" height="16px" viewBox="0 0 24 16" version="1.1" xmlns="http://www.w3.org/2000/svg" xmlns:xlink="http://www.w3.org/1999/xlink" xmlns:sketch="http://www.bohemiancoding.com/sketch/ns">
    <!-- Generator: Sketch 3.3.3 (12081) - http://www.bohemiancoding.com/sketch -->
    <title>icon-bikescore</title>
    <desc>Created with Sketch.</desc>
    <defs></defs>
    <g id="Iconography" stroke="none" stroke-width="1" fill="none" fill-rule="evenodd" sketch:type="MSPage">
        <g id="ICONOGRAPHY---IDENTIFIERS-(24x24)" sketch:type="MSArtboardGroup" transform="translate(-268.000000, -819.000000)" fill="#585858">
            <path d="M290.122,826.284 C288.305,824.779 286.806,824.833 285.475,825.262 L283.17,821 L286.75,821 C286.888,821 287,820.888 287,820.75 L287,819.25 C287,819.112 286.888,819 286.75,819 L279.915,819 C279.727,819 279.606,819.2 279.694,819.367 L281.615,823 L276,823 L275.359,821.984 L276,822 L276,820.25 C276,820.112 275.888,820 275.75,820 L271.25,820 C271.112,820 271,820.112 271,820.25 L271,821.75 C271,821.888 271.112,822 271.25,822 L273.078,822 L274.39,824.056 L273.824,825.083 C273.554,825.038 273.282,825 273,825 C270.239,825 268,827.238 268,830 C268,832.703 270.297,835 273,835 C275.762,835 278,832.761 278,830 C278,829.323 277.862,828.679 277.618,828.09 L282.879,825.045 L283.623,826.334 C282.396,827.464 281.72,829.184 282.111,831.061 C282.51,832.98 284.073,834.529 285.998,834.903 C289.183,835.52 291.972,833.113 292,830.046 C292.013,828.572 291.258,827.224 290.122,826.284 L290.122,826.284 Z M275.193,832.194 C272.73,834.087 270,832.356 270,830 C270,828.43 271.216,827.152 272.754,827.025 L271.554,829.204 C271.509,829.284 271.511,829.38 271.561,829.458 C271.75,829.746 272.228,830.46 272.46,830.806 C272.533,830.915 272.678,830.949 272.792,830.883 L275.861,829.107 C276.149,830.027 276.008,831.134 275.193,832.194 L275.193,832.194 Z M276.514,826.447 C276.256,826.192 275.966,825.974 275.659,825.78 L276.051,825.029 L279.029,825.029 L276.514,826.447 L276.514,826.447 Z M286.499,832.959 C285.335,832.77 284.36,831.857 284.085,830.71 C283.85,829.726 284.122,828.82 284.666,828.139 L286.009,830.466 C286.078,830.586 286.231,830.627 286.351,830.558 L287.656,829.804 C287.773,829.737 287.815,829.588 287.75,829.469 L286.445,827.056 C287.303,826.895 288.258,826.999 289.435,828.495 C289.753,828.9 289.983,829.393 289.999,829.908 C290.055,831.769 288.405,833.269 286.499,832.959 L286.499,832.959 Z" id="icon-bikescore" sketch:type="MSShapeGroup"></path>
        </g>
    </g>
</svg>