<?xml version="1.0" encoding="UTF-8" standalone="no"?>
<svg width="22px" height="22px" viewBox="0 0 22 22" version="1.1" xmlns="http://www.w3.org/2000/svg" xmlns:xlink="http://www.w3.org/1999/xlink" xmlns:sketch="http://www.bohemiancoding.com/sketch/ns">
    <!-- Generator: Sketch 3.3.3 (12081) - http://www.bohemiancoding.com/sketch -->
    <title>icon-call</title>
    <desc>Created with Sketch.</desc>
    <defs></defs>
    <g id="Iconography" stroke="none" stroke-width="1" fill="none" fill-rule="evenodd" sketch:type="MSPage">
        <g id="ICONOGRAPHY---CONTROLS-(24x24)" sketch:type="MSArtboardGroup" transform="translate(-269.000000, -1394.000000)" fill="#585858">
            <path d="M273.741,1396 L275.892,1399.999 L274.26,1402.924 L274.961,1403.947 C275.037,1404.058 275.764,1405.091 277.841,1407.199 C279.928,1409.255 280.961,1409.982 281.072,1410.058 L282.095,1410.759 L285.02,1409.127 L289.019,1411.278 L286.578,1413.999 C285.143,1413.869 281.627,1413.008 276.847,1408.149 C271.99,1403.371 271.154,1399.784 271.021,1398.441 L273.737,1396 L273.738,1396 M273.738,1394 C273.267,1394 272.792,1394.165 272.405,1394.512 L269.334,1397.268 C269.123,1397.457 269.001,1397.717 269,1398 C268.997,1399.374 269.517,1403.744 275.444,1409.575 C280.656,1414.75 285.286,1415.644 286.942,1415.923 C287.283,1415.98 287.625,1415.859 287.855,1415.6 L290.507,1412.614 C291.373,1411.65 291.107,1410.13 289.966,1409.517 L285.485,1407.107 C285.184,1406.945 284.822,1406.948 284.524,1407.114 L282.203,1408.409 C282.203,1408.409 281.266,1407.766 279.245,1405.774 C277.254,1403.753 276.611,1402.816 276.611,1402.816 L277.905,1400.495 C278.072,1400.197 278.074,1399.835 277.913,1399.534 L275.503,1395.053 C275.135,1394.369 274.442,1394 273.738,1394" id="icon-call" sketch:type="MSShapeGroup"></path>
        </g>
    </g>
</svg>