<?xml version="1.0" encoding="UTF-8" standalone="no"?>
<svg width="18px" height="17px" viewBox="0 0 18 17" version="1.1" xmlns="http://www.w3.org/2000/svg" xmlns:xlink="http://www.w3.org/1999/xlink" xmlns:sketch="http://www.bohemiancoding.com/sketch/ns">
    <!-- Generator: Sketch 3.3.3 (12081) - http://www.bohemiancoding.com/sketch -->
    <title>icon-filter</title>
    <desc>Created with Sketch.</desc>
    <defs></defs>
    <g id="Iconography" stroke="none" stroke-width="1" fill="none" fill-rule="evenodd" sketch:type="MSPage">
        <g id="ICONOGRAPHY---CONTROLS-(18x18)" sketch:type="MSArtboardGroup" transform="translate(-1231.000000, -819.000000)" fill="#585858">
            <path d="M1248.8125,832.909091 L1242.25,832.909091 L1242.25,831.556818 C1242.25,831.450182 1242.166,831.363636 1242.0625,831.363636 L1235.6875,831.363636 C1235.584,831.363636 1235.5,831.450182 1235.5,831.556818 L1235.5,832.909091 L1231.1875,832.909091 C1231.084,832.909091 1231,832.995636 1231,833.102273 L1231,834.261364 C1231,834.368 1231.084,834.454545 1231.1875,834.454545 L1235.5,834.454545 L1235.5,835.806818 C1235.5,835.913455 1235.584,836 1235.6875,836 L1242.0625,836 C1242.166,836 1242.25,835.913455 1242.25,835.806818 L1242.25,834.454545 L1248.8125,834.454545 C1248.916,834.454545 1249,834.368 1249,834.261364 L1249,833.102273 C1249,832.995636 1248.916,832.909091 1248.8125,832.909091 L1248.8125,832.909091 Z M1237,832.909091 L1240.75,832.909091 L1240.75,834.454545 L1237,834.454545 L1237,832.909091 Z M1248.8125,826.727273 L1246.75,826.727273 L1246.75,825.375 C1246.75,825.268364 1246.666,825.181818 1246.5625,825.181818 L1240.1875,825.181818 C1240.084,825.181818 1240,825.268364 1240,825.375 L1240,826.727273 L1231.1875,826.727273 C1231.084,826.727273 1231,826.813818 1231,826.920455 L1231,828.079545 C1231,828.186182 1231.084,828.272727 1231.1875,828.272727 L1240,828.272727 L1240,829.625 C1240,829.731636 1240.084,829.818182 1240.1875,829.818182 L1246.5625,829.818182 C1246.666,829.818182 1246.75,829.731636 1246.75,829.625 L1246.75,828.272727 L1248.8125,828.272727 C1248.916,828.272727 1249,828.186182 1249,828.079545 L1249,826.920455 C1249,826.813818 1248.916,826.727273 1248.8125,826.727273 Z M1241.5,826.727273 L1245.25,826.727273 L1245.25,828.272727 L1241.5,828.272727 L1241.5,826.727273 Z M1248.8125,820.545455 L1240,820.545455 L1240,819.193182 C1240,819.086545 1239.916,819 1239.8125,819 L1233.4375,819 C1233.334,819 1233.25,819.086545 1233.25,819.193182 L1233.25,820.545455 L1231.1875,820.545455 C1231.084,820.545455 1231,820.632 1231,820.738636 L1231,821.897727 C1231,822.004364 1231.084,822.090909 1231.1875,822.090909 L1233.25,822.090909 L1233.25,823.443182 C1233.25,823.549818 1233.334,823.636364 1233.4375,823.636364 L1239.8125,823.636364 C1239.916,823.636364 1240,823.549818 1240,823.443182 L1240,822.090909 L1248.8125,822.090909 C1248.916,822.090909 1249,822.004364 1249,821.897727 L1249,820.738636 C1249,820.632 1248.916,820.545455 1248.8125,820.545455 Z M1234.75,820.545455 L1238.5,820.545455 L1238.5,822.090909 L1234.75,822.090909 L1234.75,820.545455 Z" id="icon-filter" sketch:type="MSShapeGroup"></path>
        </g>
    </g>
</svg>