<?xml version="1.0" encoding="UTF-8" standalone="no"?>
<svg width="24px" height="24px" viewBox="0 0 24 24" version="1.1" xmlns="http://www.w3.org/2000/svg" xmlns:xlink="http://www.w3.org/1999/xlink" xmlns:sketch="http://www.bohemiancoding.com/sketch/ns">
    <!-- Generator: Sketch 3.3.3 (12081) - http://www.bohemiancoding.com/sketch -->
    <title>icon-house</title>
    <desc>Created with Sketch.</desc>
    <defs></defs>
    <g id="Iconography" stroke="none" stroke-width="1" fill="none" fill-rule="evenodd" sketch:type="MSPage">
        <g id="ICONOGRAPHY---IDENTIFIERS-(24x24)" sketch:type="MSArtboardGroup" transform="translate(-148.000000, -237.000000)" fill="#585858">
            <path d="M172,247 L171.357,247 L170,245.89 L170,238.25 C170,238.112 169.888,238 169.75,238 L164.25,238 C164.112,238 164,238.112 164,238.25 L164,240.981 L160.158,237.838 C160.066,237.762 159.934,237.762 159.842,237.838 L148.643,247 L148,247 L148,248.75 C148,248.888 148.112,249 148.25,249 L150,249 L150,260.75 C150,260.888 150.112,261 150.25,261 L169.75,261 C169.888,261 170,260.888 170,260.75 L170,249 L171.75,249 C171.888,249 172,248.888 172,248.75 L172,247 L172,247 Z M166,240 L168,240 L168,244.254 L166,242.617 L166,240 L166,240 Z M159,253 L161,253 L161,259 L159,259 L159,253 Z M168,251 L166.25,251 C166.112,251 166,251.112 166,251.25 L166,252.75 C166,252.888 166.112,253 166.25,253 L168,253 L168,255 L165.25,255 C165.112,255 165,255.112 165,255.25 L165,256.75 C165,256.888 165.112,257 165.25,257 L168,257 L168,259 L163,259 L163,251.25 C163,251.112 162.888,251 162.75,251 L157.25,251 C157.112,251 157,251.112 157,251.25 L157,259 L152,259 L152,257 L153.75,257 C153.888,257 154,256.888 154,256.75 L154,255.25 C154,255.112 153.888,255 153.75,255 L152,255 L152,253 L154.75,253 C154.888,253 155,252.888 155,252.75 L155,251.25 C155,251.112 154.888,251 154.75,251 L152,251 L152,246.837 L160,240.292 L168,246.837 L168,251 L168,251 Z" id="icon-house" sketch:type="MSShapeGroup"></path>
        </g>
    </g>
</svg>