<?xml version="1.0" encoding="UTF-8" standalone="no"?>
<svg width="24px" height="24px" viewBox="0 0 24 24" version="1.1" xmlns="http://www.w3.org/2000/svg" xmlns:xlink="http://www.w3.org/1999/xlink" xmlns:sketch="http://www.bohemiancoding.com/sketch/ns">
    <!-- Generator: Sketch 3.3.3 (12081) - http://www.bohemiancoding.com/sketch -->
    <title>icon-recommended</title>
    <desc>Created with Sketch.</desc>
    <defs></defs>
    <g id="Iconography" stroke="none" stroke-width="1" fill="none" fill-rule="evenodd" sketch:type="MSPage">
        <g id="ICONOGRAPHY---IDENTIFIERS-(24x24)" sketch:type="MSArtboardGroup" transform="translate(-1108.000000, -466.000000)" fill="#585858">
            <path d="M1131.221,477 C1131.7,476.468 1132,475.772 1132,475 C1132,473.343 1130.657,472 1129,472 L1120.868,472 L1121.185,471.525 C1121.913,470.433 1121.981,469.035 1121.361,467.877 C1120.741,466.72 1119.541,466 1118.227,466 C1117.142,466 1116.13,466.486 1115.452,467.334 L1109.533,474.731 C1108.545,475.968 1108,477.521 1108,479.104 L1108,482.515 C1108,484.385 1108.729,486.143 1110.051,487.465 L1110.535,487.949 C1111.857,489.271 1113.615,490 1115.485,490 L1129,490 C1130.657,490 1132,488.657 1132,487 C1132,486.228 1131.7,485.532 1131.221,485 C1131.7,484.468 1132,483.772 1132,483 C1132,482.228 1131.7,481.532 1131.221,481 C1131.7,480.468 1132,479.772 1132,479 C1132,478.228 1131.7,477.532 1131.221,477 L1131.221,477 Z M1122.779,481 C1122.3,481.532 1122,482.228 1122,483 C1122,483.772 1122.3,484.468 1122.779,485 C1122.3,485.532 1122,486.228 1122,487 C1122,487.352 1122.072,487.686 1122.184,488 L1115.485,488 C1114.159,488 1112.887,487.473 1111.949,486.535 L1111.465,486.051 C1110.527,485.113 1110,483.841 1110,482.514 L1110,479.104 C1110,477.969 1110.386,476.868 1111.095,475.982 L1117.015,468.583 C1117.31,468.213 1117.753,468 1118.227,468 C1118.81,468 1119.323,468.307 1119.598,468.821 C1119.873,469.335 1119.844,469.931 1119.521,470.416 L1116.307,475.237 C1116.23,475.352 1116.261,475.507 1116.376,475.584 L1117.624,476.416 C1117.739,476.493 1117.894,476.462 1117.971,476.347 L1119.535,474 L1122.184,474 C1122.072,474.314 1122,474.647 1122,475 C1122,475.772 1122.3,476.468 1122.779,477 C1122.3,477.532 1122,478.228 1122,479 C1122,479.772 1122.3,480.468 1122.779,481 L1122.779,481 Z M1129,488 L1125,488 C1124.449,488 1124,487.551 1124,487 C1124,486.449 1124.449,486 1125,486 L1129,486 C1129.551,486 1130,486.449 1130,487 C1130,487.551 1129.551,488 1129,488 L1129,488 Z M1129,484 L1125,484 C1124.449,484 1124,483.551 1124,483 C1124,482.449 1124.449,482 1125,482 L1129,482 C1129.551,482 1130,482.449 1130,483 C1130,483.551 1129.551,484 1129,484 L1129,484 Z M1129,480 L1125,480 C1124.449,480 1124,479.551 1124,479 C1124,478.449 1124.449,478 1125,478 L1129,478 C1129.551,478 1130,478.449 1130,479 C1130,479.551 1129.551,480 1129,480 L1129,480 Z M1129,476 L1125,476 C1124.449,476 1124,475.551 1124,475 C1124,474.449 1124.449,474 1125,474 L1129,474 C1129.551,474 1130,474.449 1130,475 C1130,475.551 1129.551,476 1129,476 Z M1114,483 L1112.25,483 C1112.112,483 1112,482.888 1112,482.75 L1112,481.25 C1112,481.112 1112.112,481 1112.25,481 L1114,481 C1114.552,481 1115,480.552 1115,480 L1115,478.25 C1115,478.112 1115.112,478 1115.25,478 L1116.75,478 C1116.888,478 1117,478.112 1117,478.25 L1117,480 C1117,481.657 1115.657,483 1114,483 Z" id="icon-recommended" sketch:type="MSShapeGroup"></path>
        </g>
    </g>
</svg>