<?xml version="1.0" encoding="UTF-8" standalone="no"?>
<svg width="24px" height="24px" viewBox="0 0 24 24" version="1.1" xmlns="http://www.w3.org/2000/svg" xmlns:xlink="http://www.w3.org/1999/xlink" xmlns:sketch="http://www.bohemiancoding.com/sketch/ns">
    <!-- Generator: Sketch 3.3.3 (12081) - http://www.bohemiancoding.com/sketch -->
    <title>icon-saved-search</title>
    <desc>Created with Sketch.</desc>
    <defs></defs>
    <g id="Iconography" stroke="none" stroke-width="1" fill="none" fill-rule="evenodd" sketch:type="MSPage">
        <g id="ICONOGRAPHY---IDENTIFIERS-(24x24)" sketch:type="MSArtboardGroup" transform="translate(-148.000000, -466.000000)" fill="#585858">
            <path d="M171.884,487.763 L164.33,480.209 C165.378,478.738 166,476.943 166,475 C166,474.161 165.877,473.352 165.662,472.581 L163.963,474.28 C164.041,475.037 164,475.828 163.803,476.644 C163.154,479.336 160.912,481.454 158.18,481.903 C153.341,482.698 149.208,478.492 150.13,473.636 C150.638,470.958 152.752,468.777 155.412,468.179 C157.364,467.739 159.21,468.138 160.693,469.064 L162.14,467.618 C160.434,466.427 158.301,465.807 156.012,466.053 C151.873,466.497 148.503,469.857 148.055,473.995 C147.467,479.416 151.698,484 157,484 C158.943,484 160.738,483.378 162.209,482.33 L169.763,489.884 C169.86,489.981 170.019,489.981 170.116,489.884 L171.884,488.116 C171.981,488.019 171.981,487.86 171.884,487.763 Z M164.116,468.47 L158,474.586 L155.884,472.47 C155.786,472.372 155.628,472.372 155.53,472.47 L154.47,473.53 C154.372,473.628 154.372,473.786 154.47,473.884 L157.823,477.237 C157.921,477.335 158.079,477.335 158.177,477.237 L165.53,469.884 C165.628,469.786 165.628,469.628 165.53,469.53 L164.47,468.47 C164.372,468.372 164.214,468.372 164.116,468.47 Z" id="icon-saved-search" sketch:type="MSShapeGroup"></path>
        </g>
    </g>
</svg>