<?xml version="1.0" encoding="UTF-8" standalone="no"?>
<svg width="24px" height="24px" viewBox="0 0 24 24" version="1.1" xmlns="http://www.w3.org/2000/svg" xmlns:xlink="http://www.w3.org/1999/xlink" xmlns:sketch="http://www.bohemiancoding.com/sketch/ns">
    <!-- Generator: Sketch 3.3.3 (12081) - http://www.bohemiancoding.com/sketch -->
    <title>icon-settings</title>
    <desc>Created with Sketch.</desc>
    <defs></defs>
    <g id="Iconography" stroke="none" stroke-width="1" fill="none" fill-rule="evenodd" sketch:type="MSPage">
        <g id="ICONOGRAPHY---CONTROLS-(24x24)" sketch:type="MSArtboardGroup" transform="translate(-1108.000000, -815.000000)" fill="#585858">
            <path d="M1121.795,839 L1118.205,839 C1117.611,839 1117.096,838.577 1116.979,837.995 L1116.481,835.498 L1114.361,836.911 C1113.863,837.237 1113.191,837.164 1112.784,836.755 L1110.245,834.216 C1109.828,833.799 1109.761,833.138 1110.085,832.644 L1111.502,830.52 L1109.005,830.02 C1108.423,829.904 1108,829.389 1108,828.795 L1108,825.205 C1108,824.611 1108.423,824.096 1109.005,823.98 L1111.502,823.481 L1110.089,821.361 C1109.761,820.862 1109.828,820.201 1110.245,819.784 L1112.784,817.245 C1113.191,816.834 1113.87,816.766 1114.356,817.085 L1116.481,818.502 L1116.979,816.005 C1117.096,815.423 1117.611,815 1118.205,815 L1121.795,815 C1122.389,815 1122.904,815.423 1123.021,816.005 L1123.52,818.502 L1125.639,817.089 C1126.136,816.761 1126.808,816.834 1127.216,817.245 L1129.755,819.784 C1130.172,820.201 1130.239,820.862 1129.915,821.356 L1128.498,823.481 L1130.995,823.98 C1131.577,824.096 1132,824.611 1132,825.205 L1132,828.795 C1132,829.389 1131.577,829.904 1130.995,830.02 L1128.498,830.52 L1129.911,832.639 C1130.239,833.138 1130.172,833.799 1129.755,834.216 L1127.216,836.755 C1126.981,836.991 1126.666,837.121 1126.332,837.121 C1126.087,837.121 1125.85,837.05 1125.645,836.915 L1123.52,835.498 L1123.021,837.995 C1122.904,838.577 1122.389,839 1121.795,839 L1121.795,839 Z M1118.82,837 L1121.18,837 L1121.81,833.852 L1123.563,833.123 L1126.236,834.906 L1127.906,833.236 L1126.123,830.562 L1126.852,828.81 L1130,828.18 L1130,825.82 L1126.852,825.19 L1126.123,823.437 L1127.906,820.764 L1126.236,819.094 L1123.563,820.877 L1121.81,820.148 L1121.18,817 L1118.82,817 L1118.19,820.148 L1116.438,820.877 L1113.764,819.094 L1112.094,820.764 L1113.877,823.437 L1113.148,825.19 L1110,825.82 L1110,828.18 L1113.148,828.81 L1113.877,830.562 L1112.094,833.236 L1113.764,834.906 L1116.438,833.123 L1118.19,833.852 L1118.82,837 L1118.82,837 Z M1120,831 C1117.794,831 1116,829.206 1116,827 C1116,824.794 1117.794,823 1120,823 C1122.206,823 1124,824.794 1124,827 C1124,829.206 1122.206,831 1120,831 L1120,831 Z M1120,825 C1118.898,825 1118,825.898 1118,827 C1118,828.102 1118.898,829 1120,829 C1121.103,829 1122,828.102 1122,827 C1122,825.898 1121.103,825 1120,825 L1120,825 Z" id="icon-settings" sketch:type="MSShapeGroup"></path>
        </g>
    </g>
</svg>