<svg xmlns="http://www.w3.org/2000/svg" xmlns:xlink="http://www.w3.org/1999/xlink" viewBox="0 0 100 100" enable-background="new 0 0 100 100"><defs><path id="0" d="m69.6 20.6h-29.4c-1.4 0-2.5-1.1-2.5-2.4 0-1.4 1.1-2.4 2.5-2.4h29.4c1.4 0 2.4 1.1 2.4 2.4.1 1.3-1 2.4-2.4 2.4m0 24.5h-29.4c-1.4 0-2.5-1.1-2.5-2.4s1.1-2.4 2.5-2.4h29.4c1.4 0 2.4 1.1 2.4 2.4s-1 2.4-2.4 2.4m-41.7-21.7c0 1.2-1.2 2.1-2.8 2.1h-9.1c-1.5 0-2.8-.9-2.8-2.1v-10.5c0-1.2 1.2-2.1 2.8-2.1h9.1c1.5 0 2.8.9 2.8 2.1v10.5m0 24.5c0 1.2-1.2 2.1-2.8 2.1h-9.1c-1.5 0-2.8-.9-2.8-2.1v-10.5c0-1.2 1.2-2.1 2.8-2.1h9.1c1.5 0 2.8.9 2.8 2.1v10.5m-24.5-46.9v93.1h39.2l-14.7-19.6 19.6-19.6 14.7 14.7 24.5-24.5v-44.1h-83.3m93.2 63.7l-9.8-9.8-24.5 24.5-14.7-14.7-9.8 9.8 24.5 24.5 34.3-34.3"/><clipPath id="1"><use xlink:href="#0"/></clipPath></defs><g fill-rule="evenodd"><use xlink:href="#0"/><path clip-path="url(#1)" d="m-21.1-23.5h142.2v147h-142.2z"/></g></svg>