<?xml version="1.0" encoding="UTF-8" standalone="no"?>
<svg width="22px" height="24px" viewBox="0 0 22 24" version="1.1" xmlns="http://www.w3.org/2000/svg" xmlns:xlink="http://www.w3.org/1999/xlink" xmlns:sketch="http://www.bohemiancoding.com/sketch/ns">
    <!-- Generator: Sketch 3.3.3 (12081) - http://www.bohemiancoding.com/sketch -->
    <title>icon-tour</title>
    <desc>Created with Sketch.</desc>
    <defs></defs>
    <g id="Iconography" stroke="none" stroke-width="1" fill="none" fill-rule="evenodd" sketch:type="MSPage">
        <g id="ICONOGRAPHY---IDENTIFIERS-(24x24)" sketch:type="MSArtboardGroup" transform="translate(-629.000000, -466.000000)" fill="#585858">
            <path d="M651,474.853 C651,474.773 650.962,474.698 650.897,474.651 L649,473.265 L640.156,466.126 C640.065,466.052 639.935,466.052 639.843,466.124 L629.095,474.651 C629.035,474.698 629,474.77 629,474.847 L629,476.75 C629,476.888 629.112,477 629.25,477 L631,477 L631,486.75 C631,486.888 631.112,487 631.25,487 L636.76,487 C638.423,489.072 641.091,490.302 644.027,489.936 C647.517,489.5 650.38,486.72 650.906,483.243 C651.264,480.872 650.576,478.665 649.24,477 L650.75,477 C650.888,477 651,476.888 651,476.75 L651,474.853 L651,474.853 Z M633,485 L633,474.222 L640,468.594 L647,474.222 L647,475.079 C645.822,474.397 644.459,474 643,474 C638.582,474 635,477.582 635,482 C635,483.062 635.211,484.073 635.587,485 L633,485 L633,485 Z M643.5,487.975 L643.5,487 L642.5,487 L642.5,487.975 C641.468,487.889 640.509,487.544 639.691,487 C639.498,486.872 639.314,486.733 639.138,486.585 L639.136,486.583 C638.968,486.44 638.808,486.288 638.657,486.128 C638.639,486.109 638.623,486.09 638.605,486.071 C638.467,485.922 638.336,485.766 638.214,485.604 C638.202,485.587 638.19,485.571 638.177,485.554 C638.046,485.376 637.923,485.192 637.812,485 C637.378,484.253 637.101,483.406 637.025,482.5 L638,482.5 L638,481.5 L637.025,481.5 C637.267,478.59 639.59,476.267 642.5,476.025 L642.5,477 L643.5,477 L643.5,476.025 C644.84,476.137 646.054,476.691 647,477.541 C647.151,477.676 647.295,477.819 647.431,477.969 C647.435,477.973 647.439,477.978 647.443,477.982 C647.573,478.126 647.696,478.276 647.813,478.432 C647.822,478.445 647.831,478.457 647.84,478.469 C647.948,478.616 648.049,478.769 648.143,478.926 C648.157,478.949 648.171,478.971 648.185,478.995 C648.271,479.142 648.349,479.294 648.422,479.448 C648.439,479.483 648.457,479.517 648.472,479.552 C648.538,479.696 648.594,479.845 648.648,479.995 C648.665,480.042 648.684,480.089 648.7,480.136 C648.747,480.279 648.785,480.425 648.821,480.571 C648.835,480.628 648.852,480.684 648.865,480.741 C648.897,480.89 648.919,481.041 648.939,481.193 C648.947,481.25 648.959,481.306 648.965,481.363 C648.97,481.408 648.969,481.455 648.973,481.5 L648,481.5 L648,482.5 L648.975,482.5 C648.733,485.409 646.409,487.733 643.5,487.975 Z M644.737,480.409 L639.646,478.5 L641.555,483.591 L646.646,485.5 L644.737,480.409 Z M643.53,482.53 C643.237,482.823 642.763,482.823 642.47,482.53 C642.177,482.237 642.177,481.763 642.47,481.47 C642.763,481.177 643.237,481.177 643.53,481.47 C643.823,481.763 643.823,482.237 643.53,482.53 Z" id="icon-tour" sketch:type="MSShapeGroup"></path>
        </g>
    </g>
</svg>