<svg xmlns="http://www.w3.org/2000/svg" xmlns:xlink="http://www.w3.org/1999/xlink" xmlns:sketch="http://www.bohemiancoding.com/sketch/ns" width="24px" height="24px" viewBox="0 0 24 24" version="1.1">
    <!-- Generator: Sketch 3.3.3 (12081) - http://www.bohemiancoding.com/sketch -->
    <title>icon-tour-old</title>
    <desc>Created with Sketch.</desc>
    <defs/>
    <g id="Iconography" stroke="none" stroke-width="1" fill="none" fill-rule="evenodd" sketch:type="MSPage">
        <g id="ICONOGRAPHY---IDENTIFIERS-(24x24)" sketch:type="MSArtboardGroup" transform="translate(-748.000000, -466.000000)">
            <g id="Card---Tour-(Proposed)-Copy" sketch:type="MSLayerGroup" transform="translate(712.000000, 442.000000)">
                <rect id="Icon-Card" stroke="#F5F5F5" stroke-width="2" fill="#FFFFFF" sketch:type="MSShapeGroup" x="0" y="0" width="96" height="96" rx="2"/>
                <g id="Icon-Guides" transform="translate(36.000000, 24.000000)" stroke="#00FFFF" stroke-width="0.25" sketch:type="MSShapeGroup">
                    <rect id="Outer-Square" x="0" y="0" width="24" height="24"/>
                    <circle id="Outer-Circle" cx="12" cy="12" r="12"/>
                    <circle id="Inner-Circle" cx="12" cy="12" r="7"/>
                    <rect id="Inner-Square" x="6" y="6" width="12" height="12"/>
                    <path d="M1,1 L23,23" id="Line" stroke-linecap="square"/>
                    <path d="M1,23 L23,1" id="Line" stroke-linecap="square"/>
                </g>
            </g>
            <path d="M758.806345,475.096763 C759.273663,473.876484 760.361981,473.140973 761.711663,473.140973 L764.7623,473.140973 L758.252254,468.100006 L754.061027,472.321881 L754.061027,468.839696 L751.994163,468.839696 L751.994163,473.99872 L748.840027,477.160164 L751.996254,477.160164 L751.996254,484.451543 L756.17389,484.451543 L756.17389,480.216087 C756.17389,479.715647 756.28889,479.261176 756.480209,478.863123 L756.480209,478.844317 L756.490663,478.844317 C756.782345,478.246714 757.34689,477.778662 757.874845,477.493442 L758.806345,475.096763 L758.806345,475.096763 Z M770.562481,478.595664 L769.399936,476.06839 C769.181436,475.50004 768.7068,475.012138 767.812936,475.012138 L761.711663,475.012138 C760.818845,475.012138 760.343163,475.50004 760.125709,476.06839 L758.963163,478.595664 C758.503163,478.657305 757.686663,479.195356 757.686663,480.216087 L757.686663,484.471394 L758.8168,484.471394 L758.8168,485.424215 C758.8168,486.919266 760.941163,486.901505 760.941163,485.424215 L760.941163,484.471394 L768.584481,484.471394 L768.584481,485.424215 C768.584481,486.901505 770.708845,486.919266 770.708845,485.424215 L770.708845,484.471394 L771.840027,484.471394 L771.840027,480.216087 C771.840027,479.195356 771.022481,478.65626 770.562481,478.595664 L770.562481,478.595664 Z M760.238618,482.148892 C759.698118,482.148892 759.257981,481.697556 759.257981,481.140699 C759.257981,480.586976 759.698118,480.133551 760.238618,480.133551 C760.782254,480.133551 761.221345,480.586976 761.221345,481.140699 C761.221345,481.697556 760.781209,482.148892 760.238618,482.148892 L760.238618,482.148892 Z M760.165436,478.566411 L761.042572,476.673306 C761.1513,476.344206 761.31439,476.103912 761.697027,476.100777 L767.825481,476.100777 C768.210209,476.103912 768.371209,476.343162 768.483072,476.673306 L769.357072,478.566411 L760.165436,478.566411 L760.165436,478.566411 Z M769.579754,482.214712 C769.037163,482.214712 768.599118,481.763376 768.599118,481.206519 C768.599118,480.651751 769.038209,480.200415 769.579754,480.200415 C770.1213,480.200415 770.56039,480.651751 770.56039,481.206519 C770.561436,481.763376 770.1213,482.214712 769.579754,482.214712 L769.579754,482.214712 Z" id="icon-tour-old" fill="#585858" sketch:type="MSShapeGroup"/>
        </g>
    </g>
</svg>
