<?xml version="1.0" encoding="UTF-8" standalone="no"?>
<svg width="18px" height="24px" viewBox="0 0 18 24" version="1.1" xmlns="http://www.w3.org/2000/svg" xmlns:xlink="http://www.w3.org/1999/xlink" xmlns:sketch="http://www.bohemiancoding.com/sketch/ns">
    <!-- Generator: Sketch 3.3.3 (12081) - http://www.bohemiancoding.com/sketch -->
    <title>icon-transitscore</title>
    <desc>Created with Sketch.</desc>
    <defs></defs>
    <g id="Iconography" stroke="none" stroke-width="1" fill="none" fill-rule="evenodd" sketch:type="MSPage">
        <g id="ICONOGRAPHY---IDENTIFIERS-(24x24)" sketch:type="MSArtboardGroup" transform="translate(-391.000000, -815.000000)" fill="#585858">
            <path d="M406,816 L403,816 L403,815 L397,815 L397,816 L394,816 C392.343,816 391,817.343 391,819 L391,833 C391,833.552 391.448,834 392,834 L408,834 C408.552,834 409,833.552 409,833 L409,819 C409,817.343 407.657,816 406,816 L406,816 Z M393,827 L407,827 L407,832 L393,832 L393,827 Z M407,825 L393,825 L393,819 C393,818.448 393.448,818 394,818 L406,818 C406.552,818 407,818.448 407,819 L407,825 Z M406.125,839 L408.5,839 C408.706,839 408.824,838.765 408.7,838.6 L406.075,835.1 C406.028,835.037 405.954,835 405.875,835 L403.5,835 C403.294,835 403.176,835.235 403.3,835.4 L405.925,838.9 C405.972,838.963 406.046,839 406.125,839 Z M393.875,839 L391.5,839 C391.294,839 391.176,838.765 391.3,838.6 L393.925,835.1 C393.972,835.037 394.046,835 394.125,835 L396.5,835 C396.706,835 396.824,835.235 396.7,835.4 L394.075,838.9 C394.028,838.963 393.954,839 393.875,839 Z M406,829.5 C406,830.328 405.328,831 404.5,831 C403.672,831 403,830.328 403,829.5 C403,828.672 403.672,828 404.5,828 C405.328,828 406,828.672 406,829.5 Z M397,829.5 C397,830.328 396.328,831 395.5,831 C394.672,831 394,830.328 394,829.5 C394,828.672 394.672,828 395.5,828 C396.328,828 397,828.672 397,829.5 Z" id="icon-transitscore" sketch:type="MSShapeGroup"></path>
        </g>
    </g>
</svg>